<?xml version="1.0" encoding="utf-8"?>
<svg xmlns="http://www.w3.org/2000/svg" xmlns:xlink="http://www.w3.org/1999/xlink" width="800" height="500" viewBox="0 0 3200 2000">
<defs>
  <clipPath id="clip630">
    <rect x="0" y="0" width="3200" height="2000"/>
  </clipPath>
</defs>
<path clip-path="url(#clip630)" d="
M0 2000 L3200 2000 L3200 0 L0 0  Z
  " fill="#ffffff" fill-rule="evenodd" fill-opacity="1"/>
<defs>
  <clipPath id="clip631">
    <rect x="640" y="0" width="2241" height="2000"/>
  </clipPath>
</defs>
<path clip-path="url(#clip630)" d="
M259.783 1783.25 L1478.06 1783.25 L1478.06 153.492 L259.783 153.492  Z
  " fill="#ffffff" fill-rule="evenodd" fill-opacity="1"/>
<defs>
  <clipPath id="clip632">
    <rect x="259" y="153" width="1219" height="1631"/>
  </clipPath>
</defs>
<polyline clip-path="url(#clip630)" style="stroke:#000000; stroke-linecap:round; stroke-linejoin:round; stroke-width:4; stroke-opacity:1; fill:none" points="
  259.783,1783.25 1478.06,1783.25 
  "/>
<polyline clip-path="url(#clip630)" style="stroke:#000000; stroke-linecap:round; stroke-linejoin:round; stroke-width:4; stroke-opacity:1; fill:none" points="
  259.783,153.492 1478.06,153.492 
  "/>
<polyline clip-path="url(#clip630)" style="stroke:#000000; stroke-linecap:round; stroke-linejoin:round; stroke-width:4; stroke-opacity:1; fill:none" points="
  259.783,1783.25 259.783,1764.35 
  "/>
<polyline clip-path="url(#clip630)" style="stroke:#000000; stroke-linecap:round; stroke-linejoin:round; stroke-width:4; stroke-opacity:1; fill:none" points="
  470.202,1783.25 470.202,1764.35 
  "/>
<polyline clip-path="url(#clip630)" style="stroke:#000000; stroke-linecap:round; stroke-linejoin:round; stroke-width:4; stroke-opacity:1; fill:none" points="
  680.621,1783.25 680.621,1764.35 
  "/>
<polyline clip-path="url(#clip630)" style="stroke:#000000; stroke-linecap:round; stroke-linejoin:round; stroke-width:4; stroke-opacity:1; fill:none" points="
  891.04,1783.25 891.04,1764.35 
  "/>
<polyline clip-path="url(#clip630)" style="stroke:#000000; stroke-linecap:round; stroke-linejoin:round; stroke-width:4; stroke-opacity:1; fill:none" points="
  1101.46,1783.25 1101.46,1764.35 
  "/>
<polyline clip-path="url(#clip630)" style="stroke:#000000; stroke-linecap:round; stroke-linejoin:round; stroke-width:4; stroke-opacity:1; fill:none" points="
  1311.88,1783.25 1311.88,1764.35 
  "/>
<g clip-path="url(#clip630)">
<text style="fill:#000000; fill-opacity:1; font-family:Arial,Helvetica Neue,Helvetica,sans-serif; font-size:41px; text-anchor:middle;" transform="rotate(0, 259.783, 1845.86)" x="259.783" y="1845.86">0</text>
</g>
<g clip-path="url(#clip630)">
<text style="fill:#000000; fill-opacity:1; font-family:Arial,Helvetica Neue,Helvetica,sans-serif; font-size:41px; text-anchor:middle;" transform="rotate(0, 470.202, 1845.86)" x="470.202" y="1845.86">10</text>
</g>
<g clip-path="url(#clip630)">
<text style="fill:#000000; fill-opacity:1; font-family:Arial,Helvetica Neue,Helvetica,sans-serif; font-size:41px; text-anchor:middle;" transform="rotate(0, 680.621, 1845.86)" x="680.621" y="1845.86">20</text>
</g>
<g clip-path="url(#clip630)">
<text style="fill:#000000; fill-opacity:1; font-family:Arial,Helvetica Neue,Helvetica,sans-serif; font-size:41px; text-anchor:middle;" transform="rotate(0, 891.04, 1845.86)" x="891.04" y="1845.86">30</text>
</g>
<g clip-path="url(#clip630)">
<text style="fill:#000000; fill-opacity:1; font-family:Arial,Helvetica Neue,Helvetica,sans-serif; font-size:41px; text-anchor:middle;" transform="rotate(0, 1101.46, 1845.86)" x="1101.46" y="1845.86">40</text>
</g>
<g clip-path="url(#clip630)">
<text style="fill:#000000; fill-opacity:1; font-family:Arial,Helvetica Neue,Helvetica,sans-serif; font-size:41px; text-anchor:middle;" transform="rotate(0, 1311.88, 1845.86)" x="1311.88" y="1845.86">50</text>
</g>
<g clip-path="url(#clip630)">
<text style="fill:#000000; fill-opacity:1; font-family:Arial,Helvetica Neue,Helvetica,sans-serif; font-size:41px; text-anchor:middle;" transform="rotate(0, 868.919, 1913.28)" x="868.919" y="1913.28">Mean degree (links/species)</text>
</g>
<polyline clip-path="url(#clip630)" style="stroke:#000000; stroke-linecap:round; stroke-linejoin:round; stroke-width:4; stroke-opacity:1; fill:none" points="
  259.783,1783.25 259.783,153.492 
  "/>
<polyline clip-path="url(#clip630)" style="stroke:#000000; stroke-linecap:round; stroke-linejoin:round; stroke-width:4; stroke-opacity:1; fill:none" points="
  1478.06,1783.25 1478.06,153.492 
  "/>
<polyline clip-path="url(#clip630)" style="stroke:#000000; stroke-linecap:round; stroke-linejoin:round; stroke-width:4; stroke-opacity:1; fill:none" points="
  259.783,1783.25 278.68,1783.25 
  "/>
<polyline clip-path="url(#clip630)" style="stroke:#000000; stroke-linecap:round; stroke-linejoin:round; stroke-width:4; stroke-opacity:1; fill:none" points="
  259.783,1511.63 278.68,1511.63 
  "/>
<polyline clip-path="url(#clip630)" style="stroke:#000000; stroke-linecap:round; stroke-linejoin:round; stroke-width:4; stroke-opacity:1; fill:none" points="
  259.783,1240 278.68,1240 
  "/>
<polyline clip-path="url(#clip630)" style="stroke:#000000; stroke-linecap:round; stroke-linejoin:round; stroke-width:4; stroke-opacity:1; fill:none" points="
  259.783,968.372 278.68,968.372 
  "/>
<polyline clip-path="url(#clip630)" style="stroke:#000000; stroke-linecap:round; stroke-linejoin:round; stroke-width:4; stroke-opacity:1; fill:none" points="
  259.783,696.745 278.68,696.745 
  "/>
<polyline clip-path="url(#clip630)" style="stroke:#000000; stroke-linecap:round; stroke-linejoin:round; stroke-width:4; stroke-opacity:1; fill:none" points="
  259.783,425.119 278.68,425.119 
  "/>
<g clip-path="url(#clip630)">
<text style="fill:#000000; fill-opacity:1; font-family:Arial,Helvetica Neue,Helvetica,sans-serif; font-size:41px; text-anchor:middle;" transform="rotate(0, 182.511, 1798.25)" x="182.511" y="1798.25">0.0</text>
</g>
<g clip-path="url(#clip630)">
<text style="fill:#000000; fill-opacity:1; font-family:Arial,Helvetica Neue,Helvetica,sans-serif; font-size:41px; text-anchor:middle;" transform="rotate(0, 182.511, 1526.63)" x="182.511" y="1526.63">0.1</text>
</g>
<g clip-path="url(#clip630)">
<text style="fill:#000000; fill-opacity:1; font-family:Arial,Helvetica Neue,Helvetica,sans-serif; font-size:41px; text-anchor:middle;" transform="rotate(0, 182.511, 1255)" x="182.511" y="1255">0.2</text>
</g>
<g clip-path="url(#clip630)">
<text style="fill:#000000; fill-opacity:1; font-family:Arial,Helvetica Neue,Helvetica,sans-serif; font-size:41px; text-anchor:middle;" transform="rotate(0, 182.511, 983.372)" x="182.511" y="983.372">0.3</text>
</g>
<g clip-path="url(#clip630)">
<text style="fill:#000000; fill-opacity:1; font-family:Arial,Helvetica Neue,Helvetica,sans-serif; font-size:41px; text-anchor:middle;" transform="rotate(0, 182.511, 711.745)" x="182.511" y="711.745">0.4</text>
</g>
<g clip-path="url(#clip630)">
<text style="fill:#000000; fill-opacity:1; font-family:Arial,Helvetica Neue,Helvetica,sans-serif; font-size:41px; text-anchor:middle;" transform="rotate(0, 182.511, 440.119)" x="182.511" y="440.119">0.5</text>
</g>
<g clip-path="url(#clip630)">
<text style="fill:#000000; fill-opacity:1; font-family:Arial,Helvetica Neue,Helvetica,sans-serif; font-size:41px; text-anchor:middle;" transform="rotate(-90, 97.2277, 968.372)" x="97.2277" y="968.372">Density</text>
</g>
<g clip-path="url(#clip630)">
<text style="fill:#000000; fill-opacity:1; font-family:Arial,Helvetica Neue,Helvetica,sans-serif; font-size:41px; text-anchor:end;" transform="rotate(0, 1478.06, 36)" x="1478.06" y="36">(a)</text>
</g>
<polyline clip-path="url(#clip632)" style="stroke:#cc6677; stroke-linecap:round; stroke-linejoin:round; stroke-width:8; stroke-opacity:1; fill:none" points="
  280.505,1783.02 281.233,1782.76 281.962,1782.26 282.69,1781.32 283.418,1779.62 284.146,1776.66 284.875,1771.7 285.603,1763.71 286.331,1751.35 287.059,1732.96 
  287.788,1706.69 288.516,1670.65 289.244,1623.21 289.973,1563.27 290.701,1490.6 291.429,1406.06 292.157,1311.65 292.886,1210.33 293.614,1105.64 294.342,1001.21 
  295.07,900.183 295.799,804.884 296.527,716.642 297.255,635.965 297.984,562.888 298.712,497.402 299.44,439.76 300.168,390.552 300.897,350.516 301.625,320.189 
  302.353,299.543 303.081,287.784 303.81,283.387 304.538,284.37 305.266,288.663 305.995,294.465 306.723,300.433 307.451,305.718 308.179,309.88 308.908,312.797 
  309.636,314.639 310.364,315.937 311.092,317.652 311.821,321.179 312.549,328.179 313.277,340.265 314.006,358.615 314.734,383.656 315.462,414.95 316.19,451.317 
  316.919,491.155 317.647,532.833 318.375,574.998 319.103,616.726 319.832,657.477 320.56,696.953 321.288,734.933 322.017,771.193 322.745,805.527 323.473,837.828 
  324.201,868.167 324.93,896.806 325.658,924.133 326.386,950.54 327.114,976.323 327.843,1001.64 328.571,1026.58 329.299,1051.2 330.028,1075.69 330.756,1100.33 
  331.484,1125.45 332.212,1151.31 332.941,1178.01 333.669,1205.37 334.397,1233 335.125,1260.38 335.854,1286.98 336.582,1312.39 337.31,1336.35 338.039,1358.74 
  338.767,1379.54 339.495,1398.77 340.223,1416.43 340.952,1432.54 341.68,1447.14 342.408,1460.33 343.136,1472.27 343.865,1483.14 344.593,1493.14 345.321,1502.44 
  346.05,1511.2 346.778,1519.56 347.506,1527.68 348.234,1535.77 348.963,1544.04 349.691,1552.72 350.419,1561.94 351.147,1571.72 351.876,1581.97 352.604,1592.48 
  353.332,1603 354.061,1613.26 354.789,1623.06 355.517,1632.27 356.245,1640.83 356.974,1648.77 357.702,1656.14 358.43,1663.05 359.158,1669.6 359.887,1675.96 
  360.615,1682.26 361.343,1688.67 362.072,1695.29 362.8,1702.15 363.528,1709.18 364.256,1716.22 364.985,1723.02 365.713,1729.3 366.441,1734.76 367.169,1739.17 
  367.898,1742.38 368.626,1744.37 369.354,1745.22 370.083,1745.12 370.811,1744.37 371.539,1743.32 372.267,1742.32 372.996,1741.7 373.724,1741.71 374.452,1742.51 
  375.18,1744.1 375.909,1746.4 376.637,1749.2 377.365,1752.26 378.094,1755.29 378.822,1758.04 379.55,1760.33 380.278,1762.02 381.007,1763.09 381.735,1763.59 
  382.463,1763.64 383.191,1763.41 383.92,1763.1 384.648,1762.91 385.376,1763 386.105,1763.5 386.833,1764.45 387.561,1765.86 388.289,1767.64 389.018,1769.68 
  389.746,1771.83 390.474,1773.97 391.203,1775.96 391.931,1777.72 392.659,1779.2 393.387,1780.38 394.116,1781.29 394.844,1781.96 395.572,1782.43 396.3,1782.74 
  397.029,1782.94 397.757,1783.05 398.485,1783.1 399.214,1783.09 399.942,1783.04 400.67,1782.94 401.398,1782.78 402.127,1782.55 402.855,1782.24 403.583,1781.83 
  404.311,1781.33 405.04,1780.74 405.768,1780.09 406.496,1779.41 407.225,1778.75 407.953,1778.16 408.681,1777.7 409.409,1777.41 410.138,1777.32 410.866,1777.44 
  411.594,1777.76 412.322,1778.25 413.051,1778.85 413.779,1779.52 414.507,1780.19 415.236,1780.84 415.964,1781.41 416.692,1781.9 417.42,1782.29 418.149,1782.6 
  418.877,1782.82 419.605,1782.98 420.333,1783.08 421.062,1783.15 421.79,1783.19 422.518,1783.22 423.247,1783.23 423.975,1783.22 424.703,1783.2 425.431,1783.14 
  
  "/>
<polyline clip-path="url(#clip632)" style="stroke:#332288; stroke-linecap:round; stroke-linejoin:round; stroke-width:8; stroke-opacity:1; fill:none" points="
  244.381,1783.25 246.627,1783.25 248.873,1783.24 251.119,1783.23 253.365,1783.21 255.611,1783.18 257.857,1783.13 260.103,1783.04 262.349,1782.89 264.595,1782.66 
  266.841,1782.3 269.088,1781.75 271.334,1780.93 273.58,1779.75 275.826,1778.07 278.072,1775.75 280.318,1772.62 282.564,1768.48 284.81,1763.13 287.056,1756.37 
  289.302,1748 291.548,1737.87 293.794,1725.84 296.04,1711.85 298.286,1695.89 300.532,1678.02 302.778,1658.37 305.024,1637.14 307.271,1614.6 309.517,1591.07 
  311.763,1566.91 314.009,1542.51 316.255,1518.27 318.501,1494.61 320.747,1471.92 322.993,1450.57 325.239,1430.89 327.485,1413.15 329.731,1397.56 331.977,1384.26 
  334.223,1373.3 336.469,1364.67 338.715,1358.29 340.961,1354.03 343.207,1351.7 345.454,1351.1 347.7,1352 349.946,1354.17 352.192,1357.37 354.438,1361.39 
  356.684,1366.05 358.93,1371.18 361.176,1376.66 363.422,1382.42 365.668,1388.4 367.914,1394.6 370.16,1401.01 372.406,1407.67 374.652,1414.59 376.898,1421.76 
  379.144,1429.16 381.39,1436.73 383.637,1444.4 385.883,1452.06 388.129,1459.61 390.375,1466.93 392.621,1473.94 394.867,1480.56 397.113,1486.75 399.359,1492.49 
  401.605,1497.79 403.851,1502.66 406.097,1507.14 408.343,1511.29 410.589,1515.15 412.835,1518.79 415.081,1522.28 417.327,1525.71 419.573,1529.16 421.819,1532.74 
  424.066,1536.56 426.312,1540.71 428.558,1545.27 430.804,1550.3 433.05,1555.85 435.296,1561.91 437.542,1568.45 439.788,1575.38 442.034,1582.62 444.28,1590.04 
  446.526,1597.5 448.772,1604.89 451.018,1612.06 453.264,1618.94 455.51,1625.44 457.756,1631.54 460.002,1637.23 462.249,1642.55 464.495,1647.55 466.741,1652.3 
  468.987,1656.88 471.233,1661.33 473.479,1665.71 475.725,1670.02 477.971,1674.24 480.217,1678.34 482.463,1682.23 484.709,1685.84 486.955,1689.08 489.201,1691.9 
  491.447,1694.24 493.693,1696.1 495.939,1697.51 498.185,1698.53 500.432,1699.24 502.678,1699.76 504.924,1700.2 507.17,1700.69 509.416,1701.35 511.662,1702.27 
  513.908,1703.53 516.154,1705.2 518.4,1707.32 520.646,1709.9 522.892,1712.93 525.138,1716.37 527.384,1720.16 529.63,1724.21 531.876,1728.41 534.122,1732.65 
  536.368,1736.82 538.615,1740.8 540.861,1744.51 543.107,1747.89 545.353,1750.9 547.599,1753.54 549.845,1755.81 552.091,1757.75 554.337,1759.39 556.583,1760.78 
  558.829,1761.96 561.075,1762.97 563.321,1763.84 565.567,1764.59 567.813,1765.25 570.059,1765.84 572.305,1766.37 574.551,1766.86 576.797,1767.33 579.044,1767.79 
  581.29,1768.26 583.536,1768.74 585.782,1769.24 588.028,1769.76 590.274,1770.31 592.52,1770.87 594.766,1771.44 597.012,1772.02 599.258,1772.59 601.504,1773.16 
  603.75,1773.73 605.996,1774.29 608.242,1774.85 610.488,1775.4 612.734,1775.94 614.98,1776.47 617.227,1776.99 619.473,1777.5 621.719,1777.98 623.965,1778.44 
  626.211,1778.88 628.457,1779.28 630.703,1779.67 632.949,1780.02 635.195,1780.36 637.441,1780.68 639.687,1780.98 641.933,1781.27 644.179,1781.54 646.425,1781.8 
  648.671,1782.03 650.917,1782.25 653.163,1782.45 655.41,1782.62 657.656,1782.76 659.902,1782.88 662.148,1782.98 664.394,1783.05 666.64,1783.11 668.886,1783.16 
  671.132,1783.19 673.378,1783.21 675.624,1783.23 677.87,1783.24 680.116,1783.24 682.362,1783.25 684.608,1783.25 686.854,1783.25 689.1,1783.25 691.346,1783.25 
  
  "/>
<polyline clip-path="url(#clip632)" style="stroke:#ddcc77; stroke-linecap:round; stroke-linejoin:round; stroke-width:8; stroke-opacity:1; fill:none" points="
  154.667,1783.25 162.062,1783.25 169.457,1783.25 176.852,1783.24 184.248,1783.23 191.643,1783.2 199.038,1783.15 206.434,1783.07 213.829,1782.92 221.224,1782.67 
  228.62,1782.27 236.015,1781.64 243.41,1780.71 250.806,1779.35 258.201,1777.45 265.596,1774.9 272.992,1771.56 280.387,1767.36 287.782,1762.24 295.178,1756.19 
  302.573,1749.26 309.968,1741.56 317.363,1733.26 324.759,1724.54 332.154,1715.65 339.549,1706.81 346.945,1698.23 354.34,1690.1 361.735,1682.55 369.131,1675.65 
  376.526,1669.44 383.921,1663.91 391.317,1659 398.712,1654.67 406.107,1650.88 413.503,1647.59 420.898,1644.83 428.293,1642.6 435.689,1640.92 443.084,1639.83 
  450.479,1639.3 457.874,1639.3 465.27,1639.77 472.665,1640.59 480.06,1641.64 487.456,1642.81 494.851,1643.96 502.246,1645 509.642,1645.88 517.037,1646.58 
  524.432,1647.13 531.828,1647.62 539.223,1648.16 546.618,1648.87 554.014,1649.88 561.409,1651.29 568.804,1653.17 576.199,1655.54 583.595,1658.39 590.99,1661.67 
  598.385,1665.3 605.781,1669.2 613.176,1673.26 620.571,1677.4 627.967,1681.55 635.362,1685.65 642.757,1689.63 650.153,1693.48 657.548,1697.16 664.943,1700.66 
  672.339,1703.99 679.734,1707.15 687.129,1710.14 694.525,1712.99 701.92,1715.68 709.315,1718.23 716.71,1720.64 724.106,1722.89 731.501,1724.99 738.896,1726.95 
  746.292,1728.77 753.687,1730.48 761.082,1732.1 768.478,1733.67 775.873,1735.21 783.268,1736.74 790.664,1738.28 798.059,1739.83 805.454,1741.4 812.85,1742.99 
  820.245,1744.6 827.64,1746.25 835.035,1747.95 842.431,1749.7 849.826,1751.51 857.221,1753.37 864.617,1755.27 872.012,1757.17 879.407,1759.04 886.803,1760.85 
  894.198,1762.55 901.593,1764.11 908.989,1765.52 916.384,1766.76 923.779,1767.83 931.175,1768.74 938.57,1769.5 945.965,1770.1 953.361,1770.55 960.756,1770.86 
  968.151,1771.03 975.546,1771.1 982.942,1771.07 990.337,1771 997.732,1770.92 1005.13,1770.88 1012.52,1770.91 1019.92,1771.05 1027.31,1771.31 1034.71,1771.68 
  1042.1,1772.16 1049.5,1772.72 1056.89,1773.34 1064.29,1773.98 1071.69,1774.63 1079.08,1775.25 1086.48,1775.84 1093.87,1776.39 1101.27,1776.91 1108.66,1777.39 
  1116.06,1777.84 1123.45,1778.28 1130.85,1778.72 1138.24,1779.15 1145.64,1779.57 1153.03,1779.99 1160.43,1780.39 1167.82,1780.77 1175.22,1781.11 1182.62,1781.42 
  1190.01,1781.69 1197.41,1781.93 1204.8,1782.13 1212.2,1782.31 1219.59,1782.47 1226.99,1782.6 1234.38,1782.72 1241.78,1782.82 1249.17,1782.9 1256.57,1782.95 
  1263.96,1782.98 1271.36,1782.99 1278.75,1782.96 1286.15,1782.92 1293.55,1782.85 1300.94,1782.77 1308.34,1782.68 1315.73,1782.59 1323.13,1782.5 1330.52,1782.42 
  1337.92,1782.35 1345.31,1782.3 1352.71,1782.27 1360.1,1782.26 1367.5,1782.27 1374.89,1782.3 1382.29,1782.35 1389.68,1782.41 1397.08,1782.47 1404.47,1782.54 
  1411.87,1782.6 1419.27,1782.64 1426.66,1782.67 1434.06,1782.69 1441.45,1782.68 1448.85,1782.66 1456.24,1782.64 1463.64,1782.62 1471.03,1782.61 1478.43,1782.61 
  1485.82,1782.64 1493.22,1782.68 1500.61,1782.74 1508.01,1782.81 1515.4,1782.88 1522.8,1782.95 1530.2,1783.02 1537.59,1783.08 1544.99,1783.13 1552.38,1783.17 
  1559.78,1783.2 1567.17,1783.22 1574.57,1783.23 1581.96,1783.24 1589.36,1783.25 1596.75,1783.25 1604.15,1783.25 1611.54,1783.25 1618.94,1783.25 1626.33,1783.25 
  
  "/>
<path clip-path="url(#clip630)" d="
M1100.76 383.866 L1437.45 383.866 L1437.45 207.817 L1100.76 207.817  Z
  " fill="#ffffff" fill-rule="evenodd" fill-opacity="1"/>
<polyline clip-path="url(#clip630)" style="stroke:#000000; stroke-linecap:round; stroke-linejoin:round; stroke-width:4; stroke-opacity:0; fill:none" points="
  1100.76,383.866 1437.45,383.866 1437.45,207.817 1100.76,207.817 1100.76,383.866 
  "/>
<polyline clip-path="url(#clip630)" style="stroke:#cc6677; stroke-linecap:round; stroke-linejoin:round; stroke-width:3.5; stroke-opacity:1; fill:none" points="
  1114.3,251.83 1195.52,251.83 
  "/>
<g clip-path="url(#clip630)">
<text style="fill:#000000; fill-opacity:1; font-family:Arial,Helvetica Neue,Helvetica,sans-serif; font-size:41px; text-anchor:start;" transform="rotate(0, 1209.05, 266.83)" x="1209.05" y="266.83">7 species</text>
</g>
<polyline clip-path="url(#clip630)" style="stroke:#332288; stroke-linecap:round; stroke-linejoin:round; stroke-width:3.5; stroke-opacity:1; fill:none" points="
  1114.3,295.842 1195.52,295.842 
  "/>
<g clip-path="url(#clip630)">
<text style="fill:#000000; fill-opacity:1; font-family:Arial,Helvetica Neue,Helvetica,sans-serif; font-size:41px; text-anchor:start;" transform="rotate(0, 1209.05, 310.842)" x="1209.05" y="310.842">27 species</text>
</g>
<polyline clip-path="url(#clip630)" style="stroke:#ddcc77; stroke-linecap:round; stroke-linejoin:round; stroke-width:3.5; stroke-opacity:1; fill:none" points="
  1114.3,339.854 1195.52,339.854 
  "/>
<g clip-path="url(#clip630)">
<text style="fill:#000000; fill-opacity:1; font-family:Arial,Helvetica Neue,Helvetica,sans-serif; font-size:41px; text-anchor:start;" transform="rotate(0, 1209.05, 354.854)" x="1209.05" y="354.854">78 species</text>
</g>
<path clip-path="url(#clip630)" d="
M1871.49 1783.25 L3089.76 1783.25 L3089.76 153.492 L1871.49 153.492  Z
  " fill="#ffffff" fill-rule="evenodd" fill-opacity="1"/>
<defs>
  <clipPath id="clip633">
    <rect x="1871" y="153" width="1219" height="1631"/>
  </clipPath>
</defs>
<polyline clip-path="url(#clip630)" style="stroke:#000000; stroke-linecap:round; stroke-linejoin:round; stroke-width:4; stroke-opacity:1; fill:none" points="
  1871.49,1783.25 3089.76,1783.25 
  "/>
<polyline clip-path="url(#clip630)" style="stroke:#000000; stroke-linecap:round; stroke-linejoin:round; stroke-width:4; stroke-opacity:1; fill:none" points="
  1871.49,153.492 3089.76,153.492 
  "/>
<polyline clip-path="url(#clip630)" style="stroke:#000000; stroke-linecap:round; stroke-linejoin:round; stroke-width:4; stroke-opacity:1; fill:none" points="
  1871.49,1783.25 1871.49,1764.35 
  "/>
<polyline clip-path="url(#clip630)" style="stroke:#000000; stroke-linecap:round; stroke-linejoin:round; stroke-width:4; stroke-opacity:1; fill:none" points="
  2097.1,1783.25 2097.1,1764.35 
  "/>
<polyline clip-path="url(#clip630)" style="stroke:#000000; stroke-linecap:round; stroke-linejoin:round; stroke-width:4; stroke-opacity:1; fill:none" points="
  2322.7,1783.25 2322.7,1764.35 
  "/>
<polyline clip-path="url(#clip630)" style="stroke:#000000; stroke-linecap:round; stroke-linejoin:round; stroke-width:4; stroke-opacity:1; fill:none" points="
  2548.31,1783.25 2548.31,1764.35 
  "/>
<polyline clip-path="url(#clip630)" style="stroke:#000000; stroke-linecap:round; stroke-linejoin:round; stroke-width:4; stroke-opacity:1; fill:none" points="
  2773.92,1783.25 2773.92,1764.35 
  "/>
<polyline clip-path="url(#clip630)" style="stroke:#000000; stroke-linecap:round; stroke-linejoin:round; stroke-width:4; stroke-opacity:1; fill:none" points="
  2999.52,1783.25 2999.52,1764.35 
  "/>
<g clip-path="url(#clip630)">
<text style="fill:#000000; fill-opacity:1; font-family:Arial,Helvetica Neue,Helvetica,sans-serif; font-size:41px; text-anchor:middle;" transform="rotate(0, 1871.49, 1845.86)" x="1871.49" y="1845.86">0</text>
</g>
<g clip-path="url(#clip630)">
<text style="fill:#000000; fill-opacity:1; font-family:Arial,Helvetica Neue,Helvetica,sans-serif; font-size:41px; text-anchor:middle;" transform="rotate(0, 2097.1, 1845.86)" x="2097.1" y="1845.86">5</text>
</g>
<g clip-path="url(#clip630)">
<text style="fill:#000000; fill-opacity:1; font-family:Arial,Helvetica Neue,Helvetica,sans-serif; font-size:41px; text-anchor:middle;" transform="rotate(0, 2322.7, 1845.86)" x="2322.7" y="1845.86">10</text>
</g>
<g clip-path="url(#clip630)">
<text style="fill:#000000; fill-opacity:1; font-family:Arial,Helvetica Neue,Helvetica,sans-serif; font-size:41px; text-anchor:middle;" transform="rotate(0, 2548.31, 1845.86)" x="2548.31" y="1845.86">15</text>
</g>
<g clip-path="url(#clip630)">
<text style="fill:#000000; fill-opacity:1; font-family:Arial,Helvetica Neue,Helvetica,sans-serif; font-size:41px; text-anchor:middle;" transform="rotate(0, 2773.92, 1845.86)" x="2773.92" y="1845.86">20</text>
</g>
<g clip-path="url(#clip630)">
<text style="fill:#000000; fill-opacity:1; font-family:Arial,Helvetica Neue,Helvetica,sans-serif; font-size:41px; text-anchor:middle;" transform="rotate(0, 2999.52, 1845.86)" x="2999.52" y="1845.86">25</text>
</g>
<g clip-path="url(#clip630)">
<text style="fill:#000000; fill-opacity:1; font-family:Arial,Helvetica Neue,Helvetica,sans-serif; font-size:41px; text-anchor:middle;" transform="rotate(0, 2480.63, 1913.28)" x="2480.63" y="1913.28">Degree k</text>
</g>
<polyline clip-path="url(#clip630)" style="stroke:#000000; stroke-linecap:round; stroke-linejoin:round; stroke-width:4; stroke-opacity:1; fill:none" points="
  1871.49,1783.25 1871.49,153.492 
  "/>
<polyline clip-path="url(#clip630)" style="stroke:#000000; stroke-linecap:round; stroke-linejoin:round; stroke-width:4; stroke-opacity:1; fill:none" points="
  3089.76,1783.25 3089.76,153.492 
  "/>
<polyline clip-path="url(#clip630)" style="stroke:#000000; stroke-linecap:round; stroke-linejoin:round; stroke-width:4; stroke-opacity:1; fill:none" points="
  1871.49,1783.25 1890.39,1783.25 
  "/>
<polyline clip-path="url(#clip630)" style="stroke:#000000; stroke-linecap:round; stroke-linejoin:round; stroke-width:4; stroke-opacity:1; fill:none" points="
  1871.49,1428.96 1890.39,1428.96 
  "/>
<polyline clip-path="url(#clip630)" style="stroke:#000000; stroke-linecap:round; stroke-linejoin:round; stroke-width:4; stroke-opacity:1; fill:none" points="
  1871.49,1074.66 1890.39,1074.66 
  "/>
<polyline clip-path="url(#clip630)" style="stroke:#000000; stroke-linecap:round; stroke-linejoin:round; stroke-width:4; stroke-opacity:1; fill:none" points="
  1871.49,720.365 1890.39,720.365 
  "/>
<polyline clip-path="url(#clip630)" style="stroke:#000000; stroke-linecap:round; stroke-linejoin:round; stroke-width:4; stroke-opacity:1; fill:none" points="
  1871.49,366.069 1890.39,366.069 
  "/>
<g clip-path="url(#clip630)">
<text style="fill:#000000; fill-opacity:1; font-family:Arial,Helvetica Neue,Helvetica,sans-serif; font-size:41px; text-anchor:middle;" transform="rotate(0, 1782.51, 1798.25)" x="1782.51" y="1798.25">0.00</text>
</g>
<g clip-path="url(#clip630)">
<text style="fill:#000000; fill-opacity:1; font-family:Arial,Helvetica Neue,Helvetica,sans-serif; font-size:41px; text-anchor:middle;" transform="rotate(0, 1782.51, 1443.96)" x="1782.51" y="1443.96">0.05</text>
</g>
<g clip-path="url(#clip630)">
<text style="fill:#000000; fill-opacity:1; font-family:Arial,Helvetica Neue,Helvetica,sans-serif; font-size:41px; text-anchor:middle;" transform="rotate(0, 1782.51, 1089.66)" x="1782.51" y="1089.66">0.10</text>
</g>
<g clip-path="url(#clip630)">
<text style="fill:#000000; fill-opacity:1; font-family:Arial,Helvetica Neue,Helvetica,sans-serif; font-size:41px; text-anchor:middle;" transform="rotate(0, 1782.51, 735.365)" x="1782.51" y="735.365">0.15</text>
</g>
<g clip-path="url(#clip630)">
<text style="fill:#000000; fill-opacity:1; font-family:Arial,Helvetica Neue,Helvetica,sans-serif; font-size:41px; text-anchor:middle;" transform="rotate(0, 1782.51, 381.069)" x="1782.51" y="381.069">0.20</text>
</g>
<g clip-path="url(#clip630)">
<text style="fill:#000000; fill-opacity:1; font-family:Arial,Helvetica Neue,Helvetica,sans-serif; font-size:41px; text-anchor:middle;" transform="rotate(-90, 1685.52, 968.372)" x="1685.52" y="968.372">p(k)</text>
</g>
<g clip-path="url(#clip630)">
<text style="fill:#000000; fill-opacity:1; font-family:Arial,Helvetica Neue,Helvetica,sans-serif; font-size:41px; text-anchor:end;" transform="rotate(0, 3089.76, 36)" x="3089.76" y="36">(b)</text>
</g>
<polyline clip-path="url(#clip633)" style="stroke:#000000; stroke-linecap:round; stroke-linejoin:round; stroke-width:8; stroke-opacity:0.7; fill:none" stroke-dasharray="4, 8" points="
  1871.49,247.691 1916.61,141.79 1961.73,467.252 2006.85,845.413 2051.98,1156.68 2097.1,1381.38 2142.22,1532.66 2187.34,1630.18 2232.46,1691.21 2277.58,1728.59 
  2322.7,1751.12 2367.82,1764.51 2412.95,1772.4 2458.07,1777.01 2503.19,1779.68 2548.31,1781.21 2593.43,1782.09 2638.55,1782.6 2683.67,1782.88 2728.79,1783.04 
  2773.92,1783.14 2819.04,1783.19 2864.16,1783.22 2909.28,1783.23 2954.4,1783.24 2999.52,1783.25 3044.64,1783.25 3089.76,1783.25 
  "/>
<polyline clip-path="url(#clip633)" style="stroke:#000000; stroke-linecap:round; stroke-linejoin:round; stroke-width:4.8; stroke-opacity:0.7; fill:none" stroke-dasharray="19, 12" points="
  1871.49,522.118 1916.61,325.063 1961.73,518.726 2006.85,808.512 2051.98,1078.85 2097.1,1294.57 2142.22,1453.65 2187.34,1565.48 2232.46,1641.61 2277.58,1692.27 
  2322.7,1725.39 2367.82,1746.76 2412.95,1760.4 2458.07,1769.02 2503.19,1774.44 2548.31,1777.82 2593.43,1779.91 2638.55,1781.21 2683.67,1782.01 2728.79,1782.49 
  2773.92,1782.79 2819.04,1782.97 2864.16,1783.08 2909.28,1783.15 2954.4,1783.19 2999.52,1783.22 3044.64,1783.23 3089.76,1783.24 
  "/>
<polyline clip-path="url(#clip633)" style="stroke:#000000; stroke-linecap:round; stroke-linejoin:round; stroke-width:4.8; stroke-opacity:0.7; fill:none" points="
  1871.49,839.983 1916.61,585.024 1961.73,641.677 2006.85,816.495 2051.98,1015.71 2097.1,1198.25 2142.22,1349.76 2187.34,1468.59 2232.46,1558.41 2277.58,1624.58 
  2322.7,1672.39 2367.82,1706.44 2412.95,1730.4 2458.07,1747.1 2503.19,1758.65 2548.31,1766.59 2593.43,1772 2638.55,1775.69 2683.67,1778.18 2728.79,1779.86 
  2773.92,1780.99 2819.04,1781.75 2864.16,1782.25 2909.28,1782.59 2954.4,1782.81 2999.52,1782.96 3044.64,1783.06 3089.76,1783.13 
  "/>
<polyline clip-path="url(#clip633)" style="stroke:#00008b; stroke-linecap:round; stroke-linejoin:round; stroke-width:16; stroke-opacity:1; fill:none" points="
  1871.49,1297.6 1916.61,1066.18 1961.73,989.178 2006.85,1001.61 2051.98,1061.94 2097.1,1144.23 2142.22,1232.87 2187.34,1318.88 2232.46,1397.57 2277.58,1466.89 
  2322.7,1526.34 2367.82,1576.34 2412.95,1617.77 2458.07,1651.69 2503.19,1679.18 2548.31,1701.3 2593.43,1718.97 2638.55,1733 2683.67,1744.1 2728.79,1752.82 
  2773.92,1759.66 2819.04,1765.01 2864.16,1769.17 2909.28,1772.41 2954.4,1774.91 2999.52,1776.85 3044.64,1778.34 3089.76,1779.49 
  "/>
<polyline clip-path="url(#clip633)" style="stroke:#808080; stroke-linecap:round; stroke-linejoin:round; stroke-width:4.8; stroke-opacity:0.7; fill:none" points="
  1871.49,1561.65 1916.61,1418.07 1961.73,1331.93 2006.85,1287.43 2051.98,1272.6 2097.1,1278.36 2142.22,1297.92 2187.34,1326.24 2232.46,1359.64 2277.58,1395.44 
  2322.7,1431.77 2367.82,1467.32 2412.95,1501.25 2458.07,1533.03 2503.19,1562.36 2548.31,1589.12 2593.43,1613.3 2638.55,1634.99 2683.67,1654.3 2728.79,1671.42 
  2773.92,1686.5 2819.04,1699.74 2864.16,1711.31 2909.28,1721.4 2954.4,1730.17 2999.52,1737.77 3044.64,1744.33 3089.76,1750 
  "/>
<polyline clip-path="url(#clip633)" style="stroke:#808080; stroke-linecap:round; stroke-linejoin:round; stroke-width:4.8; stroke-opacity:0.7; fill:none" stroke-dasharray="19, 12" points="
  1871.49,1651.73 1916.61,1555.4 1961.73,1487.2 2006.85,1441.33 2051.98,1413.04 2097.1,1398.43 2142.22,1394.37 2187.34,1398.28 2232.46,1408.11 2277.58,1422.19 
  2322.7,1439.23 2367.82,1458.17 2412.95,1478.2 2458.07,1498.69 2503.19,1519.16 2548.31,1539.24 2593.43,1558.68 2638.55,1577.29 2683.67,1594.93 2728.79,1611.55 
  2773.92,1627.08 2819.04,1641.54 2864.16,1654.92 2909.28,1667.26 2954.4,1678.59 2999.52,1688.97 3044.64,1698.44 3089.76,1707.07 
  "/>
<polyline clip-path="url(#clip633)" style="stroke:#808080; stroke-linecap:round; stroke-linejoin:round; stroke-width:4.8; stroke-opacity:0.7; fill:none" stroke-dasharray="2, 5" points="
  1871.49,1692.43 1916.61,1621.36 1961.73,1566.81 2006.85,1526.03 2051.98,1496.67 2097.1,1476.74 2142.22,1464.52 2187.34,1458.58 2232.46,1457.7 2277.58,1460.85 
  2322.7,1467.16 2367.82,1475.9 2412.95,1486.48 2458.07,1498.39 2503.19,1511.22 2548.31,1524.62 2593.43,1538.33 2638.55,1552.11 2683.67,1565.79 2728.79,1579.22 
  2773.92,1592.31 2819.04,1604.96 2864.16,1617.12 2909.28,1628.74 2954.4,1639.79 2999.52,1650.27 3044.64,1660.17 3089.76,1669.48 
  "/>
<path clip-path="url(#clip630)" d="
M2747.6 559.915 L3049.15 559.915 L3049.15 207.817 L2747.6 207.817  Z
  " fill="#ffffff" fill-rule="evenodd" fill-opacity="1"/>
<polyline clip-path="url(#clip630)" style="stroke:#000000; stroke-linecap:round; stroke-linejoin:round; stroke-width:4; stroke-opacity:0; fill:none" points="
  2747.6,559.915 3049.15,559.915 3049.15,207.817 2747.6,207.817 2747.6,559.915 
  "/>
<polyline clip-path="url(#clip630)" style="stroke:#000000; stroke-linecap:round; stroke-linejoin:round; stroke-width:3.5; stroke-opacity:0.7; fill:none" stroke-dasharray="2, 4" points="
  2761.13,251.83 2842.35,251.83 
  "/>
<g clip-path="url(#clip630)">
<text style="fill:#000000; fill-opacity:1; font-family:Arial,Helvetica Neue,Helvetica,sans-serif; font-size:41px; text-anchor:start;" transform="rotate(0, 2855.89, 266.83)" x="2855.89" y="266.83">31 links</text>
</g>
<polyline clip-path="url(#clip630)" style="stroke:#000000; stroke-linecap:round; stroke-linejoin:round; stroke-width:3.5; stroke-opacity:0.7; fill:none" stroke-dasharray="14, 9" points="
  2761.13,295.842 2842.35,295.842 
  "/>
<g clip-path="url(#clip630)">
<text style="fill:#000000; fill-opacity:1; font-family:Arial,Helvetica Neue,Helvetica,sans-serif; font-size:41px; text-anchor:start;" transform="rotate(0, 2855.89, 310.842)" x="2855.89" y="310.842">37 links</text>
</g>
<polyline clip-path="url(#clip630)" style="stroke:#000000; stroke-linecap:round; stroke-linejoin:round; stroke-width:3.5; stroke-opacity:0.7; fill:none" points="
  2761.13,339.854 2842.35,339.854 
  "/>
<g clip-path="url(#clip630)">
<text style="fill:#000000; fill-opacity:1; font-family:Arial,Helvetica Neue,Helvetica,sans-serif; font-size:41px; text-anchor:start;" transform="rotate(0, 2855.89, 354.854)" x="2855.89" y="354.854">47 links</text>
</g>
<polyline clip-path="url(#clip630)" style="stroke:#00008b; stroke-linecap:round; stroke-linejoin:round; stroke-width:3.5; stroke-opacity:1; fill:none" points="
  2761.13,383.866 2842.35,383.866 
  "/>
<g clip-path="url(#clip630)">
<text style="fill:#000000; fill-opacity:1; font-family:Arial,Helvetica Neue,Helvetica,sans-serif; font-size:41px; text-anchor:start;" transform="rotate(0, 2855.89, 398.866)" x="2855.89" y="398.866">76 links</text>
</g>
<polyline clip-path="url(#clip630)" style="stroke:#808080; stroke-linecap:round; stroke-linejoin:round; stroke-width:3.5; stroke-opacity:0.7; fill:none" points="
  2761.13,427.879 2842.35,427.879 
  "/>
<g clip-path="url(#clip630)">
<text style="fill:#000000; fill-opacity:1; font-family:Arial,Helvetica Neue,Helvetica,sans-serif; font-size:41px; text-anchor:start;" transform="rotate(0, 2855.89, 442.879)" x="2855.89" y="442.879">123 links</text>
</g>
<polyline clip-path="url(#clip630)" style="stroke:#808080; stroke-linecap:round; stroke-linejoin:round; stroke-width:3.5; stroke-opacity:0.7; fill:none" stroke-dasharray="14, 9" points="
  2761.13,471.891 2842.35,471.891 
  "/>
<g clip-path="url(#clip630)">
<text style="fill:#000000; fill-opacity:1; font-family:Arial,Helvetica Neue,Helvetica,sans-serif; font-size:41px; text-anchor:start;" transform="rotate(0, 2855.89, 486.891)" x="2855.89" y="486.891">161 links</text>
</g>
<polyline clip-path="url(#clip630)" style="stroke:#808080; stroke-linecap:round; stroke-linejoin:round; stroke-width:3.5; stroke-opacity:0.7; fill:none" stroke-dasharray="2, 4" points="
  2761.13,515.903 2842.35,515.903 
  "/>
<g clip-path="url(#clip630)">
<text style="fill:#000000; fill-opacity:1; font-family:Arial,Helvetica Neue,Helvetica,sans-serif; font-size:41px; text-anchor:start;" transform="rotate(0, 2855.89, 530.903)" x="2855.89" y="530.903">190 links</text>
</g>
</svg>
